<svg width="20" height="22" viewBox="0 0 20 22" fill="none" xmlns="http://www.w3.org/2000/svg">
<path fill-rule="evenodd" clip-rule="evenodd" d="M9.04558 17.6924C12.9312 17.6924 16.081 14.2269 16.081 9.952C16.081 5.67707 12.9312 2.21156 9.04558 2.21156C5.16001 2.21156 2.01013 5.67707 2.01013 9.952C2.01013 14.2269 5.16001 17.6924 9.04558 17.6924ZM9.04558 19.904C11.1701 19.904 13.1235 19.0982 14.6671 17.7493C15.2408 17.248 15.7579 16.6716 16.2061 16.0338C17.388 14.3519 18.0912 12.2423 18.0912 9.952C18.0912 4.45566 14.0413 0 9.04558 0C4.04984 0 0 4.45566 0 9.952C0 15.4483 4.04984 19.904 9.04558 19.904Z" fill="white"/>
<path d="M19.9264 20.6493C20.0234 20.5425 20.0247 20.3699 19.9292 20.2615L16.2061 16.0338C15.7579 16.6716 15.2408 17.248 14.6671 17.7493L18.416 21.918C18.514 22.0269 18.6738 22.0274 18.7723 21.919L19.9264 20.6493Z" fill="white"/>
</svg>
